<svg width="102" height="66" viewBox="0 0 102 66" fill="none" xmlns="http://www.w3.org/2000/svg">
<path d="M60.9501 12.04C60.9501 12.04 56.8292 2.3945 45.109 4.60072C44.2677 4.82704 35.2959 6.86395 34.1736 17.1038C34.117 18.4617 33.4453 27.3436 42.4737 31.2464C43.5395 31.699 51.3906 35.1872 58.2308 28.3992C57.5951 28.3612 54.432 28.2489 54.432 28.2489C54.0534 28.5322 48.6987 31.4174 43.5771 28.3992C42.717 27.9086 34.4186 23.9488 38.6423 13.5776C38.9422 12.8226 41.9322 7.09027 49.0346 7.2043C49.6326 7.2043 56.1746 7.28031 59.1287 15.3882C59.5022 14.8578 60.9501 12.04 60.9501 12.04Z" fill="#1F1E1E"/>
<path d="M59.0465 26.212H55.1775L63.7672 9.48824C63.8237 9.37767 63.7415 9.24809 63.6198 9.25328L61.346 9.35348L68.2222 3.32741C68.2651 3.2894 68.3319 3.31877 68.3336 3.37578L68.6283 12.173L67.1599 10.5749C67.0742 10.4816 66.9234 10.5024 66.8651 10.6164L59.0465 26.212Z" fill="#D24753"/>
<path d="M47.6776 12.6983L41.1321 26.1965H45.0011L49.6772 16.0845L55.1775 26.212L56.9372 22.7895L51.5038 12.6965L47.6776 12.6983Z" fill="#EC8623"/>
<path d="M49.6772 16.0844L55.1775 26.2119L56.9373 22.7895L52.388 14.3395L49.6772 16.0844Z" fill="url(#paint0_linear_1503_7631)"/>
<path d="M83.928 37.4568C83.6487 37.4568 83.4054 37.5518 83.1947 37.7436C82.9839 37.9353 82.8794 38.1789 82.8794 38.4744C82.8794 38.8009 82.9822 39.0531 83.1861 39.2328C83.3917 39.4108 83.6385 39.5006 83.9263 39.5006C84.2039 39.5006 84.4455 39.4108 84.6477 39.2294C84.8499 39.048 84.951 38.7975 84.951 38.4761C84.951 38.1444 84.8465 37.8922 84.6391 37.7177C84.4335 37.5432 84.1953 37.4568 83.928 37.4568Z" fill="#EC8623"/>
<path d="M97.6546 39.5006C97.9322 39.5006 98.1738 39.4108 98.376 39.2294C98.5782 39.048 98.6793 38.7975 98.6793 38.4761C98.6793 38.1444 98.5748 37.8922 98.3674 37.7177C98.1601 37.5432 97.9219 37.4568 97.6546 37.4568C97.3753 37.4568 97.132 37.5518 96.9212 37.7436C96.7105 37.9353 96.606 38.1789 96.606 38.4744C96.606 38.8009 96.7088 39.0531 96.9127 39.2328C97.12 39.4108 97.3667 39.5006 97.6546 39.5006Z" fill="#EC8623"/>
<path d="M10.7727 44.2655C10.4592 44.2655 10.2313 44.3587 10.0891 44.5453C9.94684 44.7319 9.82861 44.9721 9.73266 45.2692C9.50477 45.8964 9.16721 46.3732 8.71828 46.6963C8.27106 47.0211 7.72275 47.1817 7.07505 47.1817C6.47705 47.1817 5.95615 47.0383 5.51065 46.7533C5.06514 46.4682 4.72073 46.0346 4.47742 45.4558C4.2341 44.877 4.11245 44.1497 4.11245 43.2772C4.11245 41.9711 4.3866 40.9622 4.93663 40.2538C5.48666 39.5438 6.22345 39.1896 7.15044 39.1896C7.73303 39.1896 8.22137 39.3278 8.6189 39.6025C9.01642 39.8789 9.36083 40.2936 9.65555 40.8499C9.83204 41.1868 9.99311 41.4235 10.137 41.5617C10.281 41.6999 10.4969 41.769 10.7864 41.769C11.0452 41.769 11.2645 41.6688 11.4461 41.4701C11.6278 41.2714 11.7203 41.0416 11.7203 40.7808C11.7203 40.3057 11.5335 39.8029 11.1583 39.2691C10.783 38.7352 10.245 38.2878 9.54075 37.9249C8.83651 37.5621 8.0346 37.3807 7.13331 37.3807C6.3948 37.3807 5.69913 37.5138 5.04458 37.7781C4.39174 38.0442 3.82287 38.4294 3.33624 38.9374C2.84961 39.4453 2.47779 40.0569 2.21562 40.7704C1.95518 41.4857 1.82495 42.2942 1.82495 43.1978C1.82495 43.7541 1.87636 44.2793 1.98088 44.7751C2.08369 45.2692 2.23961 45.7357 2.44866 46.1728C2.65599 46.6099 2.90616 47.0038 3.20088 47.3562C3.52986 47.745 3.88969 48.0559 4.28208 48.2944C4.67447 48.531 5.1114 48.7073 5.59118 48.8196C6.07267 48.9319 6.60556 48.9871 7.19328 48.9871C7.96777 48.9871 8.64631 48.8628 9.2289 48.6122C9.81148 48.3617 10.2895 48.0369 10.6631 47.6361C11.0383 47.2353 11.3125 46.8276 11.4873 46.4112C11.662 45.9948 11.7494 45.6078 11.7494 45.2519C11.7494 44.9721 11.6535 44.7371 11.4616 44.5471C11.2714 44.3587 11.0418 44.2655 10.7727 44.2655Z" fill="#EC8623"/>
<path d="M20.0581 39.504C19.921 39.1412 19.808 38.8527 19.7206 38.635C19.6315 38.4173 19.5235 38.2152 19.3933 38.0268C19.2648 37.8385 19.0951 37.683 18.8844 37.5638C18.6736 37.4446 18.4132 37.3842 18.0979 37.3842C17.7895 37.3842 17.529 37.4446 17.32 37.5638C17.1092 37.683 16.9396 37.8403 16.8111 38.0355C16.6826 38.229 16.5609 38.4726 16.4461 38.7663C16.333 39.06 16.2353 39.3105 16.1531 39.5195L13.3053 46.8068C13.1888 47.0971 13.1048 47.3251 13.0551 47.4875C13.0037 47.6516 12.9797 47.8088 12.9797 47.9626C12.9797 48.2287 13.0894 48.4654 13.307 48.6744C13.5246 48.8834 13.7748 48.9888 14.0592 48.9888C14.3934 48.9888 14.6332 48.8904 14.7806 48.6934C14.928 48.4965 15.1045 48.1181 15.3118 47.5566L15.843 46.1175H20.3683L20.8994 47.5255C20.9697 47.6983 21.0554 47.8987 21.153 48.1267C21.2524 48.3531 21.3432 48.5224 21.4306 48.6312C21.5163 48.7418 21.6225 48.8282 21.7493 48.8921C21.8761 48.956 22.0269 48.9871 22.2051 48.9871C22.5084 48.9871 22.7688 48.8783 22.983 48.6623C23.1989 48.4446 23.3052 48.2062 23.3052 47.9471C23.3052 47.6965 23.1921 47.2957 22.9642 46.7446L20.0581 39.504ZM16.4358 44.4105L18.0842 39.7787L19.7617 44.4105H16.4358Z" fill="#EC8623"/>
<path d="M33.3032 45.9189C33.017 45.4472 32.6915 45.0015 32.3282 44.5834C31.9632 44.1653 31.5811 43.8491 31.1819 43.6349C32.1329 43.4258 32.844 43.0717 33.3117 42.5707C33.7795 42.0714 34.0143 41.4028 34.0143 40.5648C34.0143 40.1571 33.944 39.7701 33.8052 39.4056C33.6664 39.0411 33.4625 38.7197 33.1935 38.445C32.9245 38.1686 32.6161 37.9578 32.2665 37.8092C31.9787 37.6762 31.6548 37.5881 31.295 37.5449C30.9351 37.5017 30.5033 37.4792 29.9962 37.4792H26.3293C25.8427 37.4792 25.4914 37.5898 25.2738 37.8092C25.0562 38.0286 24.9465 38.3828 24.9465 38.8735V47.5083C24.9465 47.9627 25.0459 48.3065 25.243 48.5414C25.44 48.7764 25.7193 48.8939 26.0774 48.8939C26.4116 48.8939 26.6823 48.7816 26.8896 48.557C27.0969 48.3324 27.2015 47.9834 27.2015 47.5083V43.9027H27.9914C28.3906 43.9027 28.723 43.9562 28.9852 44.0634C29.2491 44.1705 29.5078 44.3691 29.7631 44.6611C30.0184 44.9514 30.308 45.3764 30.6319 45.931L31.5349 47.4461C31.7473 47.8037 31.9153 48.0732 32.0403 48.2581C32.1654 48.443 32.3128 48.5933 32.4841 48.7142C32.6555 48.8334 32.8679 48.8939 33.1215 48.8939C33.334 48.8939 33.5208 48.8524 33.6836 48.7678C33.8463 48.6831 33.9731 48.5691 34.0674 48.424C34.1616 48.2788 34.2079 48.132 34.2079 47.9834C34.2079 47.84 34.1274 47.5791 33.968 47.1991C33.8121 46.8172 33.5893 46.3905 33.3032 45.9189ZM30.589 42.1284C30.2189 42.2234 29.7631 42.27 29.2217 42.27H27.2015V39.1844H29.2816C30.0561 39.1844 30.5753 39.2415 30.8375 39.3538C31.1151 39.4712 31.3327 39.6492 31.4903 39.8859C31.648 40.1226 31.7251 40.3973 31.7251 40.7082C31.7251 41.1056 31.6274 41.4183 31.4321 41.6464C31.2401 41.8744 30.9591 42.0351 30.589 42.1284Z" fill="#EC8623"/>
<path d="M43.6562 46.99H38.4026V43.7973H43.0787C43.4283 43.7973 43.687 43.7161 43.8532 43.5554C44.0194 43.3947 44.1034 43.1874 44.1034 42.9317C44.1034 42.676 44.0194 42.4704 43.8498 42.315C43.6802 42.1595 43.4231 42.0817 43.0787 42.0817H38.4026V39.3261H43.4814C43.8412 39.3261 44.1085 39.2449 44.2816 39.0842C44.4564 38.9236 44.5438 38.7111 44.5438 38.445C44.5438 38.1841 44.4564 37.9751 44.2816 37.8127C44.1068 37.652 43.8395 37.5708 43.4814 37.5708H37.5288C37.2101 37.5708 36.9479 37.6174 36.7423 37.7125C36.5367 37.8075 36.3859 37.9578 36.2899 38.1634C36.194 38.3707 36.146 38.6368 36.146 38.9633V47.3994C36.146 47.8901 36.2539 48.2443 36.4681 48.4637C36.6823 48.6831 37.037 48.7937 37.5271 48.7937H43.6545C44.0092 48.7937 44.2765 48.7107 44.4547 48.5449C44.6346 48.379 44.7237 48.1631 44.7237 47.8987C44.7237 47.6223 44.6346 47.4029 44.4547 47.237C44.2765 47.0729 44.0092 46.99 43.6562 46.99Z" fill="#EC8623"/>
<path d="M53.9181 46.99H48.6629V43.7973H53.339C53.6885 43.7973 53.9473 43.7161 54.1135 43.5554C54.2797 43.3947 54.3636 43.1874 54.3636 42.9317C54.3636 42.676 54.2797 42.4704 54.1101 42.315C53.9404 42.1595 53.6834 42.0817 53.339 42.0817H48.6629V39.3261H53.7417C54.1015 39.3261 54.3688 39.2449 54.5419 39.0842C54.7166 38.9236 54.804 38.7111 54.804 38.445C54.804 38.1841 54.7166 37.9751 54.5419 37.8127C54.3671 37.652 54.0998 37.5708 53.7417 37.5708H47.789C47.4703 37.5708 47.2082 37.6174 47.0025 37.7125C46.7969 37.8075 46.6461 37.9578 46.5502 38.1634C46.4542 38.3707 46.4062 38.6368 46.4062 38.9633V47.3994C46.4062 47.8901 46.5142 48.2443 46.7284 48.4637C46.9443 48.6831 47.2973 48.7937 47.7873 48.7937H53.9147C54.2694 48.7937 54.5367 48.7107 54.7149 48.5449C54.8948 48.379 54.9839 48.1631 54.9839 47.8987C54.9839 47.6223 54.8948 47.4029 54.7149 47.237C54.5384 47.0729 54.2711 46.99 53.9181 46.99Z" fill="#EC8623"/>
<path d="M79.509 37.3824C79.1954 37.3824 78.9453 37.4913 78.7602 37.7072C78.5751 37.9249 78.4826 38.2497 78.4826 38.6834V45.359L74.1475 38.7456C74.0259 38.5521 73.9076 38.3655 73.7945 38.1875C73.6797 38.0096 73.5684 37.8627 73.4604 37.7504C73.3508 37.6381 73.2257 37.5483 73.0817 37.4827C72.9378 37.417 72.763 37.3824 72.5626 37.3824C72.3038 37.3824 72.0639 37.455 71.8412 37.6001C71.6184 37.7453 71.4591 37.9336 71.3631 38.1633C71.2826 38.3724 71.2415 38.6609 71.2415 39.0289V47.6879C71.2415 48.1112 71.3374 48.4343 71.5293 48.6554C71.7212 48.8766 71.9765 48.9889 72.297 48.9889C72.6054 48.9889 72.859 48.8783 73.056 48.6589C73.2531 48.4395 73.3525 48.1147 73.3525 47.6862V41.1107L77.5813 47.6482C77.703 47.8261 77.8246 48.0024 77.9463 48.1734C78.068 48.3444 78.1999 48.493 78.3404 48.6209C78.4826 48.7487 78.6334 48.842 78.7962 48.9007C78.9573 48.9595 79.1406 48.9889 79.3428 48.9889C80.1533 48.9889 80.5576 48.4965 80.5576 47.5117V38.6851C80.5576 38.2515 80.4634 37.9267 80.2766 37.709C80.0882 37.4913 79.8328 37.3824 79.509 37.3824Z" fill="#EC8623"/>
<path d="M83.9058 40.4733C83.6025 40.4733 83.3557 40.5787 83.1655 40.7877C82.9753 40.9967 82.8811 41.3077 82.8811 41.7224V47.7018C82.8811 48.1095 82.9753 48.424 83.1655 48.6434C83.3557 48.8628 83.6025 48.9733 83.9058 48.9733C84.209 48.9733 84.4592 48.8662 84.658 48.652C84.8567 48.4378 84.9544 48.1216 84.9544 47.7035V41.6636C84.9544 41.2904 84.855 41.0002 84.658 40.7912C84.4592 40.5769 84.209 40.4733 83.9058 40.4733Z" fill="#EC8623"/>
<path d="M94.4659 37.557H87.2984C86.9283 37.557 86.6473 37.6417 86.4519 37.8092C86.2566 37.9768 86.1589 38.2066 86.1589 38.4986C86.1589 38.7802 86.2532 39.0048 86.4399 39.1758C86.6267 39.3469 86.9129 39.4315 87.2984 39.4315H89.759V47.5843C89.759 48.0491 89.8635 48.3963 90.0742 48.6261C90.285 48.8559 90.5557 48.9699 90.8899 48.9699C91.2188 48.9699 91.4879 48.8559 91.6952 48.6296C91.9025 48.4032 92.007 48.0543 92.007 47.5843V39.4315H94.4676C94.8514 39.4315 95.141 39.3469 95.3329 39.1758C95.5248 39.0048 95.6208 38.7785 95.6208 38.4986C95.6208 38.2187 95.5265 37.9907 95.3363 37.8179C95.1461 37.6434 94.8566 37.557 94.4659 37.557Z" fill="#EC8623"/>
<path d="M97.6323 40.4733C97.329 40.4733 97.0823 40.5787 96.8921 40.7877C96.7019 40.9967 96.6077 41.3077 96.6077 41.7224V47.7018C96.6077 48.1095 96.7019 48.424 96.8921 48.6434C97.0823 48.8628 97.329 48.9733 97.6323 48.9733C97.9356 48.9733 98.1858 48.8662 98.3845 48.652C98.5833 48.4378 98.681 48.1216 98.681 47.7035V41.6636C98.681 41.2904 98.5816 41.0002 98.3845 40.7912C98.1858 40.5769 97.9356 40.4733 97.6323 40.4733Z" fill="#EC8623"/>
<path d="M64.8278 45.9189C64.5417 45.4472 64.2161 45.0015 63.8529 44.5834C63.4879 44.1653 63.1058 43.8491 62.7065 43.6349C63.6575 43.4258 64.3686 43.0717 64.8364 42.5707C65.3042 42.0714 65.5389 41.4028 65.5389 40.5648C65.5389 40.1571 65.4687 39.7701 65.3299 39.4056C65.1911 39.0411 64.9872 38.7197 64.7182 38.445C64.4492 38.1686 64.1407 37.9578 63.7912 37.8092C63.5033 37.6762 63.1795 37.5881 62.8196 37.5449C62.4598 37.5017 62.028 37.4792 61.5208 37.4792H57.854C57.3673 37.4792 57.0161 37.5898 56.7985 37.8092C56.5809 38.0286 56.4712 38.3828 56.4712 38.8735V47.5083C56.4712 47.9627 56.5706 48.3065 56.7676 48.5414C56.9647 48.7764 57.244 48.8939 57.6021 48.8939C57.9362 48.8939 58.2069 48.7816 58.4143 48.557C58.6216 48.3324 58.7261 47.9834 58.7261 47.5083V43.9027H59.516C59.9153 43.9027 60.2477 43.9562 60.5099 44.0634C60.7737 44.1705 61.0325 44.3691 61.2878 44.6611C61.5431 44.9514 61.8327 45.3764 62.1565 45.931L63.0595 47.4461C63.272 47.8037 63.4399 48.0732 63.565 48.2581C63.6901 48.443 63.8374 48.5933 64.0088 48.7142C64.1801 48.8334 64.3926 48.8939 64.6462 48.8939C64.8587 48.8939 65.0454 48.8524 65.2082 48.7678C65.371 48.6831 65.4978 48.5691 65.592 48.424C65.6863 48.2788 65.7325 48.132 65.7325 47.9834C65.7325 47.84 65.6537 47.5791 65.4927 47.1991C65.3367 46.8172 65.114 46.3905 64.8278 45.9189ZM62.1137 42.1284C61.7436 42.2234 61.2878 42.27 60.7463 42.27H58.7261V39.1844H60.8063C61.5808 39.1844 62.1 39.2415 62.3621 39.3538C62.6397 39.4712 62.8573 39.6492 63.015 39.8859C63.1726 40.1226 63.2497 40.3973 63.2497 40.7082C63.2497 41.1056 63.1521 41.4183 62.9567 41.6464C62.7648 41.8744 62.4838 42.0351 62.1137 42.1284Z" fill="#EC8623"/>
<path d="M49.9206 57.85C49.7355 57.9432 49.3671 58.0365 48.8959 58.0365C47.801 58.0365 46.9768 57.3403 46.9768 56.0566C46.9768 54.8317 47.801 54.0007 49.0056 54.0007C49.4888 54.0007 49.7955 54.1061 49.9274 54.1752L49.8058 54.5881C49.6156 54.4948 49.3448 54.4257 49.0227 54.4257C48.1128 54.4257 47.508 55.0131 47.508 56.0411C47.508 56.9999 48.0546 57.615 49.0004 57.615C49.3054 57.615 49.6173 57.5511 49.8178 57.4526L49.9206 57.85Z" fill="#010101"/>
<path d="M52.991 56.5474C52.991 57.5874 52.2765 58.0401 51.6031 58.0401C50.8475 58.0401 50.2666 57.482 50.2666 56.594C50.2666 55.6524 50.8766 55.1013 51.6494 55.1013C52.4496 55.1013 52.991 55.6887 52.991 56.5474ZM50.7789 56.5767C50.7789 57.1918 51.1302 57.6565 51.6254 57.6565C52.1086 57.6565 52.4719 57.197 52.4719 56.5646C52.4719 56.0878 52.2354 55.4849 51.6357 55.4849C51.0394 55.4849 50.7789 56.0429 50.7789 56.5767Z" fill="#010101"/>
<path d="M53.6319 55.9271C53.6319 55.6369 53.6268 55.3985 53.6096 55.1669H54.0585L54.0877 55.6317H54.0997C54.2385 55.3639 54.5606 55.103 55.0215 55.103C55.4071 55.103 56.0068 55.3345 56.0068 56.3003V57.9796H55.4996V56.359C55.4996 55.9064 55.3334 55.528 54.8536 55.528C54.5195 55.528 54.2607 55.7665 54.1734 56.0515C54.1511 56.1154 54.1391 56.2018 54.1391 56.2899V57.9796H53.6319V55.9271Z" fill="#010101"/>
<path d="M56.8824 57.9779V55.5557H56.49V55.167H56.8824V55.0339C56.8824 54.6383 56.9681 54.2789 57.2045 54.0526C57.3947 53.866 57.6483 53.7917 57.8848 53.7917C58.063 53.7917 58.2189 53.8332 58.3166 53.8729L58.248 54.2686C58.1726 54.234 58.0698 54.2047 57.9259 54.2047C57.4941 54.2047 57.3844 54.5882 57.3844 55.0184V55.1687H58.0578V55.5574H57.3844V57.9796H56.8824V57.9779Z" fill="#010101"/>
<path d="M60.8458 57.2108C60.8458 57.5011 60.8509 57.7568 60.8697 57.9779H60.4208L60.3917 57.5184H60.3797C60.2478 57.7447 59.953 58.0418 59.4578 58.0418C59.0209 58.0418 58.4966 57.7982 58.4966 56.81V55.1653H59.0038V56.7219C59.0038 57.2557 59.1648 57.6168 59.6258 57.6168C59.965 57.6168 60.2015 57.3784 60.294 57.1521C60.3231 57.0761 60.3403 56.9845 60.3403 56.8912V55.1653H60.8475V57.2108H60.8458Z" fill="#010101"/>
<path d="M61.6202 57.4544C61.7693 57.5528 62.0349 57.6582 62.2885 57.6582C62.6569 57.6582 62.8299 57.4716 62.8299 57.2401C62.8299 56.9965 62.686 56.8618 62.3107 56.7236C61.8087 56.5439 61.5739 56.264 61.5739 55.9271C61.5739 55.4745 61.9372 55.103 62.5352 55.103C62.8179 55.103 63.0647 55.1842 63.2206 55.2775L63.0938 55.649C62.9841 55.5799 62.782 55.4866 62.5232 55.4866C62.2234 55.4866 62.0572 55.6611 62.0572 55.8701C62.0572 56.1016 62.2234 56.207 62.5866 56.3469C63.0698 56.5335 63.3183 56.7771 63.3183 57.1952C63.3183 57.6893 62.9379 58.0383 62.2748 58.0383C61.9698 58.0383 61.687 57.9623 61.4917 57.8465L61.6202 57.4544Z" fill="#010101"/>
<path d="M64.5348 54.3756C64.54 54.5501 64.4132 54.6901 64.2127 54.6901C64.0345 54.6901 63.9077 54.5501 63.9077 54.3756C63.9077 54.196 64.0397 54.056 64.2247 54.056C64.4132 54.056 64.5348 54.196 64.5348 54.3756ZM63.9711 57.9778V55.1669H64.4783V57.9778H63.9711Z" fill="#010101"/>
<path d="M67.8419 56.5474C67.8419 57.5874 67.1273 58.0401 66.4539 58.0401C65.6983 58.0401 65.1174 57.482 65.1174 56.594C65.1174 55.6524 65.7274 55.1013 66.5002 55.1013C67.3004 55.1013 67.8419 55.6887 67.8419 56.5474ZM65.6298 56.5767C65.6298 57.1918 65.981 57.6565 66.4762 57.6565C66.9594 57.6565 67.3227 57.197 67.3227 56.5646C67.3227 56.0878 67.0862 55.4849 66.4865 55.4849C65.8885 55.4849 65.6298 56.0429 65.6298 56.5767Z" fill="#010101"/>
<path d="M68.4827 55.9271C68.4827 55.6369 68.4776 55.3985 68.4604 55.1669H68.9094L68.9385 55.6317H68.9505C69.0893 55.3639 69.4114 55.103 69.8724 55.103C70.2579 55.103 70.8576 55.3345 70.8576 56.3003V57.9796H70.3504V56.359C70.3504 55.9064 70.1842 55.528 69.7044 55.528C69.3703 55.528 69.1116 55.7665 69.0242 56.0515C69.0019 56.1154 68.9899 56.2018 68.9899 56.2899V57.9796H68.4827V55.9271Z" fill="#010101"/>
<path d="M73.5134 54.3584V55.1652H74.2399V55.5539H73.5134V57.0708C73.5134 57.4198 73.6111 57.6168 73.8938 57.6168C74.0257 57.6168 74.1234 57.5995 74.1868 57.5822L74.2108 57.9657C74.1131 58.0072 73.9572 58.0349 73.7619 58.0349C73.5254 58.0349 73.3352 57.9588 73.2153 57.8206C73.0713 57.6703 73.0199 57.4198 73.0199 57.0881V55.5539H72.5881V55.1652H73.0199V54.4914L73.5134 54.3584Z" fill="#010101"/>
<path d="M77.2987 56.5474C77.2987 57.5874 76.5841 58.0401 75.9107 58.0401C75.1551 58.0401 74.5742 57.482 74.5742 56.594C74.5742 55.6524 75.1842 55.1013 75.957 55.1013C76.7572 55.1013 77.2987 55.6887 77.2987 56.5474ZM75.0865 56.5767C75.0865 57.1918 75.4378 57.6565 75.933 57.6565C76.4162 57.6565 76.7795 57.197 76.7795 56.5646C76.7795 56.0878 76.543 55.4849 75.9433 55.4849C75.347 55.4849 75.0865 56.0429 75.0865 56.5767Z" fill="#010101"/>
<path d="M81.8925 57.85C81.7074 57.9432 81.339 58.0365 80.8661 58.0365C79.7712 58.0365 78.947 57.3403 78.947 56.0566C78.947 54.8317 79.7712 54.0007 80.9741 54.0007C81.459 54.0007 81.764 54.1061 81.8959 54.1752L81.7743 54.5881C81.5841 54.4948 81.3133 54.4257 80.9912 54.4257C80.0813 54.4257 79.4765 55.0131 79.4765 56.0411C79.4765 56.9999 80.0231 57.615 80.9689 57.615C81.2739 57.615 81.5858 57.5511 81.7863 57.4526L81.8925 57.85Z" fill="#010101"/>
<path d="M82.5042 53.8522H83.0113V57.9761H82.5042V53.8522Z" fill="#010101"/>
<path d="M85.4067 57.9779L85.3673 57.6237H85.3502C85.1943 57.8448 84.8944 58.0418 84.4969 58.0418C83.9314 58.0418 83.6436 57.641 83.6436 57.235C83.6436 56.556 84.2433 56.1828 85.3193 56.1897V56.131C85.3193 55.8995 85.2559 55.4797 84.6854 55.4797C84.4266 55.4797 84.1559 55.5609 83.9588 55.6887L83.844 55.3518C84.0736 55.2015 84.4078 55.1013 84.7607 55.1013C85.6141 55.1013 85.8214 55.6887 85.8214 56.2519V57.3041C85.8214 57.5477 85.8334 57.7861 85.8677 57.9779H85.4067ZM85.333 56.5422C84.7796 56.5301 84.1525 56.6286 84.1525 57.1745C84.1525 57.5062 84.3718 57.6617 84.6305 57.6617C84.9938 57.6617 85.2234 57.4285 85.3039 57.1918C85.3211 57.14 85.333 57.0812 85.333 57.0294V56.5422Z" fill="#010101"/>
<path d="M86.6404 56.0429C86.6404 55.7112 86.6353 55.4278 86.6182 55.1652H87.062L87.0791 55.7164H87.1031C87.2299 55.338 87.5349 55.1013 87.8741 55.1013C87.9324 55.1013 87.9718 55.1065 88.0181 55.1186V55.6006C87.9667 55.5885 87.9136 55.5833 87.845 55.5833C87.4886 55.5833 87.235 55.8563 87.1648 56.2398C87.1528 56.309 87.1408 56.3901 87.1408 56.4783V57.9761H86.6404V56.0429Z" fill="#010101"/>
<path d="M89.113 54.3756C89.1181 54.5501 88.9913 54.6901 88.7908 54.6901C88.6126 54.6901 88.4858 54.5501 88.4858 54.3756C88.4858 54.196 88.6178 54.056 88.8028 54.056C88.9913 54.056 89.113 54.196 89.113 54.3756ZM88.5475 57.9778V55.1669H89.0547V57.9778H88.5475Z" fill="#010101"/>
<path d="M90.5078 54.3584V55.1652H91.2343V55.5539H90.5078V57.0708C90.5078 57.4198 90.6055 57.6168 90.8882 57.6168C91.0201 57.6168 91.1178 57.5995 91.1812 57.5822L91.2052 57.9657C91.1075 58.0072 90.9516 58.0349 90.7562 58.0349C90.5198 58.0349 90.3296 57.9588 90.2096 57.8206C90.0657 57.6703 90.0143 57.4198 90.0143 57.0881V55.5539H89.5825V55.1652H90.0143V54.4914L90.5078 54.3584Z" fill="#010101"/>
<path d="M92.0395 55.1652L92.6495 56.8272C92.7129 57.0138 92.7815 57.2332 92.8277 57.4025H92.8397C92.8911 57.2349 92.9494 57.019 93.0179 56.8151L93.5714 55.1652H94.1077L93.3469 57.1693C92.9837 58.1333 92.7369 58.6274 92.3908 58.9297C92.1423 59.1509 91.8956 59.2373 91.7688 59.2615L91.642 58.8313C91.7688 58.7898 91.9367 58.7086 92.0858 58.5808C92.2246 58.4702 92.3976 58.2732 92.5125 58.0106C92.5364 57.9588 92.5536 57.9173 92.5536 57.888C92.5536 57.8586 92.5416 57.8189 92.5193 57.7549L91.4878 55.1635H92.0395V55.1652Z" fill="#010101"/>
<path d="M95.6943 57.6807C95.6943 57.4717 95.8383 57.3214 96.0336 57.3214C96.2409 57.3214 96.3729 57.4717 96.3729 57.6807C96.3729 57.8846 96.2409 58.0401 96.0336 58.0401C95.8314 58.0418 95.6943 57.8846 95.6943 57.6807ZM95.8383 56.8497L95.7577 54.0613H96.3112L96.2307 56.8497H95.8383Z" fill="#010101"/>
<defs>
<linearGradient id="paint0_linear_1503_7631" x1="56.863" y1="25.8809" x2="51.3674" y2="16.0429" gradientUnits="userSpaceOnUse">
<stop offset="0.0777" stop-color="#BE1E2D"/>
<stop offset="0.9653" stop-color="#EC8623" stop-opacity="0"/>
</linearGradient>
</defs>
</svg>
